<svg width="1600" height="900" viewBox="0 0 1600 900" fill="none" xmlns="http://www.w3.org/2000/svg">
  <defs>
    <linearGradient id="sky" x1="0" y1="0" x2="1" y2="1">
      <stop offset="0%" stop-color="#0F172A"/>
      <stop offset="100%" stop-color="#1E293B"/>
    </linearGradient>
    <linearGradient id="fog" x1="0" y1="0" x2="0" y2="1">
      <stop offset="0%" stop-color="#94A3B8" stop-opacity="0.1"/>
      <stop offset="100%" stop-color="#0F172A" stop-opacity="0.6"/>
    </linearGradient>
  </defs>
  <rect width="1600" height="900" fill="url(#sky)"/>
  <path d="M0 640C200 560 400 520 600 540C800 560 1000 640 1200 620C1400 600 1500 560 1600 520V900H0V640Z" fill="#0B3B2E"/>
  <path d="M0 700C180 640 360 640 540 660C720 680 900 740 1080 720C1260 700 1420 640 1600 600V900H0V700Z" fill="#0A2E24"/>
  <rect width="1600" height="900" fill="url(#fog)"/>
  <circle cx="1260" cy="200" r="120" fill="#94A3B8" fill-opacity="0.2"/>
  <circle cx="300" cy="180" r="160" fill="#64748B" fill-opacity="0.15"/>
</svg>
